# xmcd
#
# Track frame offsets:
#	150
#	15299
#	28345
#	47830
#	58244
#	79312
#	91104
#	109906
#	125056
#	142277
#	156738
#	170363
#	187364
#	205981
#	221407
#	237494
#	256418
#	272178
#	288785
#	311036
#
# Disc length: 4343 seconds
#
# Revision: 0
# Processed by: cddbd v1.5.1PL0 Copyright (c) Steve Scherf et al.
# Submitted via: audiograbber 1.82.02
#
DISCID=3e10f514
DTITLE=Chrystian and Ralf - Edição Especial
DYEAR=1900
DGENRE=
TTITLE0=Onde Você For Eu Vou
TTITLE1=A Semente do Amor
TTITLE2=Um Cantinho do Seu Coração
TTITLE3=Naquela Rua Não Passo Mais
TTITLE4=Yolanda
TTITLE5=Saudade
TTITLE6=O Amor Não é Paixão
TTITLE7=Escravo do Amor
TTITLE8=Ausência
TTITLE9=Chora Peito
TTITLE10=Vira, Virou
TTITLE11=Nova York
TTITLE12=Entre Ela e Eu
TTITLE13=Cheiro de Champu
TTITLE14=Brigas
TTITLE15=O Que Tiver Que Vir, Virá
TTITLE16=Loucura Demais
TTITLE17=Estação Paraíso
TTITLE18=Olhos de Luar
TTITLE19=Charly
EXTD=
EXTT0=
EXTT1=
EXTT2=
EXTT3=
EXTT4=
EXTT5=
EXTT6=
EXTT7=
EXTT8=
EXTT9=
EXTT10=
EXTT11=
EXTT12=
EXTT13=
EXTT14=
EXTT15=
EXTT16=
EXTT17=
EXTT18=
EXTT19=
PLAYORDER=
